<svg xmlns="http://www.w3.org/2000/svg" viewBox="0 0 100 100">
  <rect width="100" height="100" rx="20" fill="#15100b"/>
  <linearGradient id="g" x1="0" y1="0" x2="0.3" y2="1">
    <stop offset="0" stop-color="#FCF3D2"/><stop offset="0.4" stop-color="#EAC066"/><stop offset="0.72" stop-color="#CC9132"/><stop offset="1" stop-color="#8E6722"/>
  </linearGradient>
  <g transform="translate(1.5,6) scale(0.094)">
    <path fill="url(#g)" fill-rule="evenodd" d="M574.2 123.6 L533.5 123.6 L517.5 125.2 L463.3 135.6 L433.8 144.3 L405.1 155.5 L366.0 176.2 L337.3 197.8 L319.8 215.3 L307.8 230.5 L298.2 245.6 L287.1 269.5 L280.7 291.1 L278.3 305.4 L278.3 332.5 L281.5 349.3 L286.3 362.8 L298.2 383.6 L314.2 400.3 L327.8 409.9 L351.7 421.1 L366.8 425.0 L366.8 428.2 L340.5 456.1 L318.2 487.2 L301.4 519.1 L289.5 552.6 L283.1 584.5 L281.5 616.4 L283.9 644.3 L290.3 673.0 L296.7 692.2 L311.8 724.9 L324.6 744.8 L342.9 767.1 L371.6 792.7 L400.3 811.0 L428.2 823.8 L458.5 833.3 L490.4 838.9 L511.2 840.5 L543.1 839.7 L567.0 836.5 L590.1 830.9 L618.0 820.6 L639.6 809.4 L661.9 794.3 L681.0 777.5 L694.6 762.4 L709.7 740.8 L717.7 725.7 L721.7 714.5 L721.7 608.5 L725.7 588.5 L728.9 582.9 L736.0 576.6 L752.0 570.2 L767.9 561.4 L777.5 552.6 L783.9 543.1 L783.9 541.5 L781.5 541.5 L775.1 545.5 L760.0 551.0 L734.4 555.8 L644.3 557.4 L622.0 561.4 L602.1 568.6 L587.7 576.6 L575.8 586.1 L565.4 598.1 L558.2 610.0 L553.4 622.8 L551.0 638.0 L551.8 650.7 L555.0 661.9 L564.6 678.6 L573.4 687.4 L583.7 693.0 L575.0 681.0 L570.2 671.5 L566.2 655.5 L566.2 641.1 L568.6 630.0 L575.8 614.0 L581.3 606.1 L592.5 594.9 L600.5 589.3 L611.6 583.7 L630.0 578.1 L644.3 576.6 L657.9 578.1 L665.1 583.7 L668.3 593.3 L668.3 697.0 L665.1 719.3 L658.7 740.8 L645.9 767.1 L631.6 785.5 L610.8 803.0 L586.9 815.0 L563.0 821.4 L529.5 823.8 L496.8 819.8 L460.1 807.8 L434.6 794.3 L405.9 772.7 L378.0 742.4 L358.9 712.9 L350.9 697.0 L341.3 672.2 L335.7 651.5 L330.9 621.2 L330.9 580.5 L333.3 561.4 L339.7 533.5 L347.7 510.4 L357.3 488.8 L383.6 445.8 L409.1 415.5 L445.8 382.0 L450.6 382.8 L450.6 473.7 L448.2 514.4 L445.0 531.1 L437.8 551.8 L428.2 570.2 L417.1 585.3 L417.1 587.7 L428.2 580.5 L468.1 546.3 L480.1 538.3 L496.0 530.3 L492.0 518.3 L492.0 354.9 L498.4 346.9 L519.1 333.3 L542.3 323.0 L570.2 317.4 L598.9 319.0 L626.8 327.0 L643.5 335.7 L653.9 343.7 L661.9 351.7 L671.5 365.2 L679.4 388.4 L680.2 417.1 L673.8 441.8 L665.9 457.7 L652.3 476.1 L635.6 492.0 L607.7 511.2 L585.3 522.3 L535.9 543.1 L504.0 559.8 L476.1 578.9 L452.2 601.3 L434.6 624.4 L423.4 645.1 L414.7 670.7 L413.1 687.4 L414.7 687.4 L416.3 680.2 L425.8 659.5 L437.0 641.9 L453.7 622.0 L472.9 604.5 L500.8 585.3 L530.3 570.2 L624.4 534.3 L650.7 521.5 L665.1 512.8 L684.2 498.4 L700.2 482.5 L712.9 464.9 L722.5 445.8 L729.7 417.9 L729.7 391.5 L723.3 368.4 L709.7 346.1 L689.8 327.8 L678.6 320.6 L659.5 311.8 L644.3 307.0 L624.4 303.0 L590.1 300.6 L590.9 296.7 L614.0 283.1 L635.6 265.6 L647.5 252.0 L657.9 236.0 L665.9 215.3 L667.5 206.5 L667.5 186.6 L661.9 168.3 L653.9 156.3 L645.9 148.3 L634.8 140.4 L610.8 130.0 Z M446.6 155.5 L450.6 161.9 L449.8 363.6 L447.4 366.8 L394.7 403.5 L376.4 419.5 L370.8 420.3 L353.3 409.1 L341.3 397.1 L333.3 386.0 L325.4 370.0 L320.6 354.9 L317.4 332.5 L317.4 313.4 L323.0 281.5 L328.5 264.8 L341.3 238.4 L354.1 219.3 L369.2 201.8 L388.4 184.2 L410.7 169.1 L435.4 157.1 Z M601.3 144.3 L610.8 151.5 L618.0 159.5 L623.6 169.1 L627.6 182.6 L628.4 204.1 L626.8 213.7 L617.2 238.4 L601.3 261.6 L582.9 279.9 L571.0 289.5 L499.2 334.9 L492.8 336.5 L492.0 154.7 L494.4 145.9 L499.2 140.4 L504.0 138.0 L533.5 133.2 L571.0 134.0 L587.7 138.0 Z"/>
  </g>
</svg>
